<?xml version="1.0" encoding="UTF-8" standalone="no"?>
<!-- Created with Inkscape (http://www.inkscape.org/) -->

<svg
   xmlns:dc="http://purl.org/dc/elements/1.1/"
   xmlns:cc="http://creativecommons.org/ns#"
   xmlns:rdf="http://www.w3.org/1999/02/22-rdf-syntax-ns#"
   xmlns:svg="http://www.w3.org/2000/svg"
   xmlns="http://www.w3.org/2000/svg"
   xmlns:sodipodi="http://sodipodi.sourceforge.net/DTD/sodipodi-0.dtd"
   xmlns:inkscape="http://www.inkscape.org/namespaces/inkscape"
   id="svg3097"
   version="1.1"
   inkscape:version="0.48.5 r10040"
   width="1844"
   height="893"
   sodipodi:docname="CustomEnclosure3.jpg">
  <metadata
     id="metadata3103">
    <rdf:RDF>
      <cc:Work
         rdf:about="">
        <dc:format>image/svg+xml</dc:format>
        <dc:type
           rdf:resource="http://purl.org/dc/dcmitype/StillImage" />
        <dc:title></dc:title>
      </cc:Work>
    </rdf:RDF>
  </metadata>
  <defs
     id="defs3101" />
  <sodipodi:namedview
     pagecolor="#ffffff"
     bordercolor="#666666"
     borderopacity="1"
     objecttolerance="10"
     gridtolerance="10"
     guidetolerance="10"
     inkscape:pageopacity="0"
     inkscape:pageshadow="2"
     inkscape:window-width="1920"
     inkscape:window-height="1058"
     id="namedview3099"
     showgrid="false"
     inkscape:zoom="0.65105155"
     inkscape:cx="922"
     inkscape:cy="446.5"
     inkscape:window-x="-8"
     inkscape:window-y="-8"
     inkscape:window-maximized="1"
     inkscape:current-layer="svg3097" />
  <path
     style="fill:#000000"
     d="M 897.92004,798.71104 C 896.86402,797.72712 896,795.77425 896,794.37133 c 0,-2.64822 -10.79229,-36.01956 -13.79158,-42.64557 -1.86043,-4.11004 -1.63577,-4.01543 -14.72157,-6.20025 -4.95723,-0.82766 -13.24657,-2.60776 -18.42077,-3.95577 l -9.40763,-2.45093 -2.37017,2.1906 c -2.81751,2.60403 -24.14905,27.09037 -29.62919,34.01115 -3.3496,4.23016 -4.18104,4.76575 -6.5,4.18712 -1.4625,-0.36493 -3.33409,-1.2431 -4.15909,-1.95149 -1.86528,-1.60164 -23.4101,-10.2358 -27.52872,-11.03223 -4.3504,-0.84124 -5.73264,-3.54673 -4.48607,-8.78072 1.30472,-5.4782 4.13932,-44.60409 3.42672,-47.29898 -0.29898,-1.13066 -2.87647,-3.45208 -5.72776,-5.1587 C 759.83288,703.57894 752.55,698.71363 746.5,694.47376 735.84446,687.0063 733.83938,686.16303 729.41833,687.28979 726.78251,687.96156 692.67251,704.99196 692,705.97197 691.22226,707.10533 687.28806,709 685.71243,709 c -0.78048,0 -7.78507,-6.34455 -15.56574,-14.09901 -14.94129,-14.89093 -15.85493,-16.45524 -12.27451,-21.01613 2.69018,-3.42688 18.67366,-35.63696 20.18173,-40.67047 1.15721,-3.86242 1.0905,-4.4396 -0.74873,-6.47732 -2.61474,-2.89695 -9.08744,-12.5909 -15.23093,-22.81085 l -4.86987,-8.10123 -5.54498,-0.39181 c -4.94969,-0.34975 -33.22854,1.68938 -44.46825,3.20651 -5.06206,0.68327 -6.4044,-0.56226 -8.19314,-7.60227 -0.62362,-2.45442 -2.2283,-6.85525 -3.56594,-9.77963 C 594.09443,578.3334 593,575.68457 593,575.37149 c 0,-0.9082 -3.33107,-7.82079 -4.0341,-8.37149 -0.35106,-0.275 -1.13705,-1.95805 -1.74663,-3.7401 -1.06002,-3.09887 -0.93285,-3.38221 2.9172,-6.5 11.51354,-9.32373 29.86181,-25.43504 33.49024,-29.40724 l 4.12672,-4.51769 -1.84564,-7.20456 c -1.0151,-3.96252 -2.7931,-13.03387 -3.95112,-20.15856 -1.15801,-7.12469 -2.18449,-12.99137 -2.28107,-13.03705 C 611.58776,478.60881 577.59165,467 574.47517,467 c -1.1511,0 -2.92527,-0.60864 -3.94261,-1.35253 -1.69118,-1.23662 -1.85753,-3.12922 -1.94112,-22.08519 -0.0645,-14.61645 0.25099,-21.0168 1.06933,-21.69586 0.63842,-0.52976 2.88842,-1.21558 5,-1.52405 4.98351,-0.72802 34.3289,-10.35889 40.98659,-13.45141 l 5.14735,-2.39096 1.18545,-7.5 c 0.65199,-4.125 2.53828,-13.24954 4.19175,-20.27676 l 3.00632,-12.77675 -3.83912,-3.87917 c -3.62276,-3.66057 -24.42017,-21.71789 -33.20157,-28.82722 -3.85122,-3.1179 -3.97833,-3.40102 -2.91827,-6.5 0.60958,-1.78205 1.43407,-3.4651 1.83219,-3.7401 0.88645,-0.61231 9.20283,-20.87243 10.98979,-26.77303 1.55435,-5.13249 3.81607,-6.00761 11.31327,-4.37742 5.05824,1.09986 35.52236,3.06971 42.92447,2.77554 3.42777,-0.13622 4.04481,-0.61371 6.63905,-5.13763 1.57303,-2.7431 6.65489,-10.3836 11.29302,-16.97888 7.82914,-11.13281 8.36362,-12.20684 7.4645,-15 -1.59751,-4.96274 -17.7754,-37.85278 -19.67935,-40.00858 -4.2377,-4.79827 -3.96551,-5.28846 11.58158,-20.8574 8.04212,-8.05343 15.13958,-14.64092 15.77212,-14.63886 0.63255,0.002 2.72509,0.97637 4.65009,2.16514 5.08437,3.13983 37.93542,19.39901 41.69805,20.63788 2.87723,0.94735 3.62959,0.72791 7.5,-2.18746 5.32955,-4.01448 19.87918,-13.5649 25.46829,-16.71746 3.57142,-2.01447 4.21792,-2.89097 4.52761,-6.13838 0.49619,-5.20309 -1.84559,-38.16515 -3.12909,-44.04396 -1.30126,-5.96011 -4.2e-4,-8.45336 4.88908,-9.37064 3.61366,-0.67792 20.62423,-7.64418 27.5075,-11.26501 2.17879,-1.14612 4.51589,-2.08385 5.19354,-2.08385 0.67765,0 2.72,1.83693 4.53856,4.08207 8.284,10.22721 25.35061,29.78121 29.02704,33.25763 2.85314,2.69792 4.68788,3.69553 6.17002,3.35488 10.59759,-2.43573 27.25876,-5.67287 32.12026,-6.24074 5.91532,-0.69096 6.01675,-0.75661 8.22932,-5.32671 2.94553,-6.08401 12.08816,-33.26052 13.32534,-39.60962 1.55827,-7.996846 1.20058,-7.876608 23.6542,-7.951518 13.6402,-0.04551 20.1602,0.291754 21.00419,1.086489 0.67315,0.633865 1.70809,3.333865 2.29987,6 1.50512,6.781069 11.92298,38.215509 13.86891,41.847519 0.88402,1.65 1.69039,3.15808 1.79192,3.35128 0.10154,0.19321 5.05154,1.19681 11,2.23024 5.94847,1.03343 14.99553,2.9707 20.1046,4.30504 l 9.28919,2.42608 4.3489,-4.15632 c 3.7181,-3.55344 15.469,-16.99712 28.6049,-32.72576 3.4899,-4.17869 3.5761,-4.21494 7.1855,-3.02374 2.0092,0.66311 3.7947,1.54011 3.9677,1.9489 0.173,0.40879 4.1396,2.27281 8.8146,4.14227 4.675,1.86946 8.9275,3.75969 9.45,4.20052 0.5225,0.44082 1.9638,0.80149 3.2029,0.80149 2.5909,0 7.2371,1.8943 9.1681,3.7379 1.0398,0.99272 1.0959,2.379 0.2637,6.51166 -2.5904,12.86345 -4.1862,48.88327 -2.1951,49.54698 1.3495,0.44984 23.2525,15.13844 28.7297,19.2667 l 4.1193,3.10482 4.5936,-1.55958 c 5.0371,-1.71012 36.8639,-17.4096 37.6678,-18.58071 0.788,-1.14788 4.7208,-3.02777 6.3343,-3.02777 1.1963,0 24.8242,22.66637 29.4966,28.29619 1.07,1.28939 0.9993,2.13663 -0.4076,4.88198 -0.9363,1.827 -2.0344,3.54683 -2.4403,3.82183 -0.9889,0.67011 -13.9211,26.77255 -17.4553,35.23201 l -2.8124,6.73202 5.1032,7.26798 c 5.7243,8.15255 17.1815,26.46502 17.1815,27.46184 0,0.35677 0.7156,1.43935 1.5901,2.40575 2.3507,2.59751 0.926,5.46804 -3.8863,7.83005 -4.3895,2.1545 -6.5394,3.45304 -40.4322,24.42046 -34.85,21.55959 -39.6779,24.61601 -42.2716,26.76099 -4.2056,3.47808 -6.7398,4.34973 -8.4704,2.91348 -0.8413,-0.69821 -1.5296,-1.90317 -1.5296,-2.6777 0,-1.88383 -7.0816,-14.28552 -12.7606,-22.34688 C 1042.984,285.53468 984.74449,255.11188 922.30122,255.01952 831.26313,254.88487 752.91625,318.69092 734.45786,408 723.02857,463.29948 736.87603,521.54162 771.90454,565.5 808.40875,611.31028 863.66399,638 922,638 c 43.25397,0 85.408,-14.70906 119.0777,-41.5505 17.053,-13.59462 28.6904,-26.33484 41.0584,-44.9495 5.5183,-8.30542 17.8639,-31.9777 17.8639,-34.25348 0,-0.54166 -1.6875,-1.26376 -3.75,-1.60467 -4.8225,-0.79711 -35.2029,-0.8104 -41.7939,-0.0183 -4.6243,0.55576 -5.2397,0.95015 -7.398,4.74131 -4.9617,8.71557 -16.4248,22.78648 -25.7628,31.624 -20.7656,19.65247 -46.38218,32.5211 -74.7953,37.57379 -14.52191,2.58242 -37.64322,2.35255 -51.5,-0.51201 -20.6235,-4.26343 -39.62683,-12.19642 -55.86749,-23.32203 -9.57065,-6.55635 -29.19517,-25.97938 -35.59408,-35.22863 -11.10797,-16.05594 -20.11653,-37.06991 -24.2212,-56.5 -2.53915,-12.01945 -2.53956,-43.0291 -7.3e-4,-54.87475 4.16028,-19.41095 12.07298,-38.47931 22.40426,-53.99076 8.18291,-12.28585 27.17183,-31.04581 39.77924,-39.2996 25.25549,-16.53421 50.07403,-24.01921 80,-24.12712 23.52178,-0.0848 41.79128,3.92404 63,13.82403 34.5498,16.12748 64.6421,50.49517 75.4928,86.21849 l 2.1286,7.00816 5.056,0.67069 c 2.7807,0.36888 38.6409,0.60568 79.6892,0.52623 41.0484,-0.0795 75.9834,0.19427 77.6334,0.60827 1.65,0.414 3.9,1.31794 5,2.00875 2.921,1.83439 34.2567,12.40871 38.3093,12.92757 1.8994,0.24318 4.4068,1.06685 5.5721,1.83037 2.0481,1.34202 2.1175,2.08311 2.0846,22.26636 l -0.034,20.87814 -2.466,1.24785 c -1.3563,0.68631 -3.5101,1.25447 -4.7863,1.26258 -2.8049,0.0178 -38.4672,11.88429 -39.1897,13.04021 -0.2805,0.44878 -1.6869,1.11133 -3.1253,1.47234 -2.388,0.59935 -2.7199,1.32301 -3.8203,8.32928 -0.6628,4.2201 -2.5188,13.23314 -4.1244,20.02898 l -2.9193,12.35608 2.449,2.91041 c 2.065,2.4541 13.545,12.6854 34.3833,30.64335 4.1134,3.54482 4.275,3.88512 3.1875,6.71374 -0.6301,1.6388 -1.5134,3.2138 -1.963,3.5 -1.1767,0.74913 -8.7176,18.79202 -10.0567,24.06266 -1.8286,7.19666 -3.0674,8.2731 -8.6883,7.54936 -11.3881,-1.46633 -25.6762,-2.59448 -37.3401,-2.94826 l -12.5276,-0.37999 -5.2749,8.33672 c -2.9012,4.58519 -8.1534,12.24249 -11.6716,17.01622 -6.2321,8.45619 -6.3594,8.75162 -4.9475,11.48192 0.7971,1.54132 1.4492,3.26429 1.4492,3.82883 0,1.71124 16.3695,34.42846 18.2887,36.55299 4.2043,4.65421 3.7869,5.39146 -11.8961,21.00846 l -14.7693,14.70722 -3.8117,-1.25795 c -2.0964,-0.69187 -3.8116,-1.58276 -3.8116,-1.97975 0,-0.77206 -30.4907,-16.14041 -38,-19.15332 -4.4265,-1.77599 -4.5463,-1.77132 -7.3323,0.28563 -5.3508,3.95063 -23.1711,15.59229 -27.5533,18.00002 l -4.3855,2.40959 0.6833,16.285 c 0.6591,15.70626 1.7986,28.38943 3.1233,34.76207 0.5672,2.72872 0.285,3.21241 -2.7011,4.62959 -1.8339,0.87039 -5.3594,2.27056 -7.8344,3.11149 -7.6061,2.58431 -20.4274,8.14318 -21.8199,9.46035 -0.726,0.68667 -2.5071,1.54644 -3.958,1.9106 -2.2264,0.5588 -3.1498,0.052 -5.918,-3.2485 -8.4832,-10.11414 -25.0848,-29.17273 -27.3908,-31.44454 -1.4147,-1.39367 -3.0489,-3.38603 -3.6318,-4.42746 -1.0302,-1.84094 -1.40286,-1.81853 -13.42056,0.80719 -6.79852,1.48539 -16.3472,3.33901 -21.2193,4.11915 -4.8721,0.78015 -9.02272,1.58281 -9.22359,1.78368 -0.90426,0.90426 -13.42066,38.44696 -14.41546,43.2389 -0.61186,2.94733 -1.77924,5.91215 -2.59417,6.58848 -1.05132,0.87252 -7.15814,1.25791 -21.02501,1.32685 -17.47462,0.0869 -19.74656,-0.0922 -21.46337,-1.69181 z m 35.15321,-3.32421 c 2.09911,-0.34727 4.12059,-1.46757 4.89996,-2.71554 0.72969,-1.16842 4.82131,-12.4712 9.09249,-25.1173 l 7.76579,-22.99291 5.33425,-0.18404 c 6.42957,-0.22182 29.43463,-4.75623 36.16725,-7.12873 4.67371,-1.64696 4.86861,-1.63939 5.91461,0.2296 0.5948,1.06298 2.5924,3.52781 4.4389,5.47739 1.8465,1.94959 8.1304,9.1697 13.9642,16.0447 13.7486,16.20241 14.8891,17.1656 19.3493,16.34019 3.7021,-0.68513 24.1493,-9.09923 25,-10.28759 0.275,-0.38416 1.2342,-0.9686 2.1316,-1.29873 2.3928,-0.88028 2.5662,-5.13322 1.0497,-25.75863 -0.7479,-10.17238 -1.4321,-20.70595 -1.5205,-23.40794 l -0.1608,-4.9127 5.5,-2.99831 c 7.4404,-4.05614 27.0533,-17.06957 30.3988,-20.17004 3.5005,-3.24418 4.5134,-3.16779 10.8318,0.81693 7.1205,4.49055 34.9767,18.13526 36.444,17.85119 0.646,-0.12508 1.4601,0.23452 1.809,0.79911 1.4872,2.40638 4.8965,0.54092 12.9587,-7.09061 12.0169,-11.37499 15.2279,-15.5801 13.7292,-17.9798 -0.6443,-1.03176 -1.1715,-2.38144 -1.1715,-2.99928 0,-1.72916 -15.3253,-32.90078 -18.335,-37.29334 -2.5684,-3.7485 -3.5177,-7.61045 -1.8707,-7.61045 1.5191,0 18.7535,-24.64648 24.8241,-35.50036 1.3145,-2.35026 1.635,-2.35134 27.8816,-0.0941 20.2142,1.73842 26.2495,1.35668 28.4949,-1.80235 2.2587,-3.17767 10.0029,-21.79723 10.0204,-24.09217 0.01,-1.10604 0.4247,-2.65792 0.925,-3.44862 0.6153,-0.97244 0.31,-2.20004 -0.9436,-3.79372 -1.5943,-2.02675 -20.6038,-18.91555 -34.1971,-30.38209 -3.9372,-3.32109 -4.1857,-3.80653 -3.0723,-6 2.426,-4.77922 8.4415,-32.98526 8.4624,-39.67902 0.012,-3.80709 2.6155,-6.01075 7.9289,-6.7111 3.9356,-0.51874 34.2275,-10.55343 39.8402,-13.19776 3.3646,-1.58512 3.8905,-2.31982 4.4295,-6.18824 0.7853,-5.63522 0.7875,-19.54857 0,-25.26435 -0.4787,-3.49266 -1.2125,-4.7802 -3.4589,-6.06946 -2.8213,-1.61918 -33.7818,-12.23954 -43.4335,-14.89894 -4.0235,-1.10863 -20.5259,-1.41583 -84.5,-1.57304 -64.221,-0.15781 -79.6266,-0.4461 -80.1585,-1.5 -0.3621,-0.71755 -2.1051,-5.80464 -3.8732,-11.30464 -6.6351,-20.63919 -17.8719,-38.64637 -34.3587,-55.06075 -20.1692,-20.08058 -42.7735,-32.30127 -71.6096,-38.71477 -12.84026,-2.85583 -41.1548,-3.07522 -54.29238,-0.42068 -55.77561,11.26988 -98.80927,52.87873 -111.65129,107.95461 -11.18825,47.98333 4.43053,99.36794 40.67242,133.80916 34.80554,33.07624 84.74008,46.3683 130.77125,34.80996 26.45457,-6.6427 46.9833,-18.23095 66.0885,-37.30634 10.8389,-10.82197 24.4115,-29.00652 24.4115,-32.70657 0,-0.90785 0.7875,-1.96813 1.75,-2.35617 0.9625,-0.38804 13.8764,-0.73342 28.6975,-0.76751 31.7541,-0.073 30.4522,-0.56834 26.0725,9.91921 -4.4177,10.57842 -10.1236,21.7004 -15.1977,29.62317 -30.7419,48.0013 -78.3549,79.61019 -133.41843,88.57273 -29.43297,4.79072 -58.48577,3.18766 -86.07091,-4.74918 C 858.19034,631.33248 838.69745,623.39349 830,618.69841 781.90149,592.73376 746.42637,547.5927 733.05298,495.33614 c -7.75566,-30.30529 -7.96723,-66.05141 -0.56489,-95.44366 12.54695,-49.81984 43.78951,-92.7555 87.01191,-119.57771 21.54138,-13.36778 50.25588,-23.66255 76.5,-27.42691 10.84411,-1.55544 40.94119,-1.54605 52,0.0162 33.40446,4.71904 65.3684,17.95158 92.1408,38.14476 10.9126,8.23084 30.7737,28.27583 38.3592,38.71434 5.6061,7.71469 15.9089,23.96366 16.701,26.33985 0.541,1.62294 4.0641,-0.0828 17.799,-8.61719 1.925,-1.19614 8.225,-5.10334 14,-8.68267 5.775,-3.57934 19.05,-11.80733 29.5,-18.28444 10.45,-6.47711 20.125,-12.4639 21.5,-13.30399 1.375,-0.84008 3.5493,-2.55748 4.8317,-3.81644 l 2.3317,-2.28902 -6.2892,-10.30464 c -3.459,-5.66755 -9.1531,-14.30782 -12.6535,-19.20059 -6.5155,-9.10741 -7.1493,-11.49644 -3.922,-14.78412 1.5836,-1.61326 16.2483,-31.42766 18.7976,-38.21701 l 1.8388,-4.89708 -3.0053,-3.7945 c -1.6529,-2.08698 -7.04,-7.59259 -11.9713,-12.23468 l -8.9659,-8.44017 -4.0025,1.37897 c -5.2188,1.79803 -35.9255,17.17712 -37.5598,18.81138 -0.693,0.69298 -2.7012,1.85692 -4.4626,2.58654 -2.9168,1.20817 -3.3484,1.14152 -4.8352,-0.74674 -2.7047,-3.4351 -27.2264,-20.43633 -34.4331,-23.87292 -4.0883,-1.94959 -4.1522,-2.16854 -2.6451,-9.06743 1.2269,-5.61642 3.595,-38.2714 3.1281,-43.13363 -0.1897,-1.97494 -0.9954,-3.557 -2,-3.92706 -0.9253,-0.34084 -1.9074,-0.936 -2.1824,-1.32258 -0.7945,-1.11682 -20.1066,-9.14554 -24.3168,-10.10936 -3.0973,-0.70904 -4.2615,-0.52391 -6.1761,0.9821 -2.1883,1.72133 -25.0743,28.22699 -30.3332,35.13065 -2.1711,2.85016 -5.1739,4.12884 -5.1739,2.20318 0,-1.11107 -19.27628,-5.76331 -32.28133,-7.79095 -5.62027,-0.87626 -10.89028,-1.92483 -11.71114,-2.33016 -0.82085,-0.40532 -1.85183,-2.26504 -2.29105,-4.13271 C 955.7225,135.41684 944.41621,101.87763 942.85414,99.807758 941.15848,97.560888 940.67683,97.5 924.59879,97.5 c -15.35252,0 -16.61806,0.140636 -17.99737,2 -1.80451,2.43255 -14.62233,40.18164 -14.61012,43.02749 0.0141,3.27668 -2.93122,6.72148 -5.23232,6.11973 -2.43022,-0.63551 -26.53598,3.53089 -36.25898,6.26695 -6.23391,1.75422 -7.24624,1.80947 -9.25,0.50476 -1.2375,-0.80577 -2.25,-1.90299 -2.25,-2.43826 0,-0.91399 -20.10114,-24.70427 -27.51868,-32.56916 -4.0735,-4.31916 -5.04977,-4.23367 -19.98132,1.74972 -13.16022,5.27358 -16.17883,7.19712 -16.68278,10.63074 -0.58401,3.97911 1.87772,37.73871 3.20538,43.95779 0.93694,4.38888 0.87471,5.49579 -0.37951,6.75 -0.82513,0.82513 -1.95665,1.50024 -2.5145,1.50024 -2.23324,0 -28.59601,16.92354 -33.62944,21.58837 -3.20359,2.96899 -5.42932,3.041 -8.92811,0.28885 -3.51056,-2.76141 -37.60019,-19.8555 -39.62104,-19.86779 -0.8525,-0.005 -2.03848,-0.49791 -2.63551,-1.09494 -0.78069,-0.78069 -3.94286,1.65703 -11.2607,8.68087 -13.50927,12.96652 -14.62141,14.56543 -13.00829,18.7019 2.13404,5.47228 18.09041,37.11655 19.54862,38.76836 1.75214,1.98476 3.00318,7.93438 1.66838,7.93438 -1.98422,0 -20.80288,27.2624 -23.84584,34.54521 -1.5056,3.60341 -1.58101,3.64092 -6.22037,3.09375 -15.46524,-1.82398 -41.35926,-3.59045 -45.19629,-3.08325 -5.59146,0.73911 -6.47088,1.90342 -11.66532,15.44429 -6.64947,17.33382 -6.4893,16.41947 -3.4697,19.80776 2.74537,3.08057 30.00245,26.35399 34.53649,29.48892 2.6058,1.80172 3.34859,4.47694 1.73627,6.25332 C 631.31945,367.5533 625,397.56063 625,404.19132 625,408.20435 622.33055,411 618.49866,411 c -2.21356,0 -38.25908,11.94545 -42.6551,14.13586 -3.25009,1.61942 -3.81747,4.43063 -3.83255,18.98914 -0.0159,15.36354 0.34205,16.5303 5.83995,19.03488 6.55564,2.98644 32.74715,11.73763 38.54985,12.8804 6.32851,1.24632 7.59919,2.39829 7.59919,6.88928 0,7.86745 6.50106,39.04221 8.40233,40.29197 1.61472,1.06141 -0.33587,3.76743 -4.99555,6.93024 -4.8113,3.26572 -31.28061,26.2616 -33.57539,29.16947 -1.1969,1.51668 -1.39897,2.61822 -0.71481,3.89659 0.52458,0.98019 0.73719,1.78217 0.47247,1.78217 -1.15263,0 7.80624,22.31 10.30034,25.65065 0.94448,1.26506 3.22943,2.41954 5.5247,2.79137 4.52347,0.73281 30.13865,-0.93121 39.33563,-2.55532 6.87591,-1.21424 11.25028,-0.61034 11.25028,1.55315 0,2.67594 17.71896,30.04499 22.58765,34.8893 l 2.84338,2.82915 -2.15394,3.67085 c -4.35835,7.42772 -19.3284,37.29121 -20.72398,41.3419 -1.80966,5.25259 -1.39163,5.89942 12.3152,19.05557 l 9.98971,9.58836 4.07509,-1.40398 c 3.97589,-1.3698 33.8819,-16.37407 41.28053,-20.71103 l 3.71364,-2.17687 3.78636,3.59251 C 743.96882,689.05056 767.56227,705 770.08645,705 c 2.79896,0 4.90105,4.50971 3.05312,6.55 -0.83106,0.91756 -3.23029,32.39791 -3.29916,43.28814 -0.041,6.48845 0.34019,6.82249 15.1283,13.2564 13.85865,6.02952 16.76203,6.55568 20.13759,3.64941 3.75297,-3.23121 27.27363,-30.59771 28.03184,-32.6153 1.14662,-3.05116 6.86186,-6.48887 6.86186,-4.1274 0,1.73008 38.99741,9.73642 41.09871,8.43774 1.71408,-1.05936 4.82496,2.6121 5.46374,6.4483 0.84937,5.10097 12.45498,40.16104 14.16871,42.80311 0.78142,1.20472 2.39908,2.38094 3.5948,2.61382 3.45201,0.67231 24.81181,0.7337 28.74729,0.0826 z M 905.5,543.5375 c -20.65289,-3.78242 -36.51609,-11.86309 -51.6523,-26.31157 -15.04314,-14.35964 -24.34142,-31.50311 -28.75979,-53.02515 -1.38651,-6.75371 -1.40691,-27.03578 -0.035,-34.76712 8.67563,-48.89028 52.98569,-84.00509 102.37271,-81.12827 42.15736,2.45568 77.59608,30.98021 89.69408,72.19461 2.0786,7.08129 2.3495,10.06711 2.3589,26 0.012,20.38913 -0.8191,24.72562 -7.6654,39.99575 -9.4885,21.16308 -25.90589,38.14949 -47.06269,48.69388 -16.97434,8.45989 -40.52297,11.77768 -59.25053,8.34787 z m 5.6875,-1.22061 c -0.72187,-0.28887 -1.58438,-0.25335 -1.91667,0.0789 -0.33229,0.33229 0.25834,0.56864 1.3125,0.52522 1.16495,-0.048 1.4019,-0.28494 0.60417,-0.60416 z m 23,0 c -0.72187,-0.28887 -1.58438,-0.25335 -1.91667,0.0789 -0.33229,0.33229 0.25834,0.56864 1.3125,0.52522 1.16495,-0.048 1.4019,-0.28494 0.60417,-0.60416 z m 4.37884,-2.36787 c 18.28641,-3.23892 34.64048,-11.57604 48.67147,-24.81217 8.36459,-7.89073 14.20059,-15.84696 19.53849,-26.63685 7.6008,-15.36393 10.8339,-30.78988 9.8508,-47 -2.6479,-43.65956 -33.68829,-79.35962 -76.5532,-88.04516 -12.34269,-2.50095 -32.44525,-1.62447 -44.36222,1.93422 -31.38574,9.3725 -55.52609,33.40501 -64.58856,64.30003 -10.00869,34.12076 -0.26267,70.82585 25.23748,95.0485 13.62817,12.94543 28.48517,20.81668 46.6394,24.70958 7.83076,1.67919 27.36323,1.9548 35.56634,0.50185 z M 988,517.5 c 1.86578,-1.925 3.16733,-3.5 2.89233,-3.5 -0.275,0 -2.02655,1.575 -3.89233,3.5 -1.86578,1.925 -3.16733,3.5 -2.89233,3.5 0.275,0 2.02655,-1.575 3.89233,-3.5 z m -129,2.12244 c 0,-0.20765 -0.7875,-0.99515 -1.75,-1.75 -1.58606,-1.24387 -1.62143,-1.2085 -0.37756,0.37756 1.30637,1.66575 2.12756,2.19548 2.12756,1.37244 z M 852.5,513 c -1.5808,-1.65 -3.09918,-3 -3.37418,-3 -0.275,0 0.79338,1.35 2.37418,3 1.5808,1.65 3.09918,3 3.37418,3 0.275,0 -0.79338,-1.35 -2.37418,-3 z M 995,510.5 c 0.68469,-0.825 1.01989,-1.5 0.74489,-1.5 -0.275,0 -1.0602,0.675 -1.74489,1.5 -0.68469,0.825 -1.01989,1.5 -0.74489,1.5 0.275,0 1.0602,-0.675 1.74489,-1.5 z M 825.73504,442.25 c -0.206,-2.6125 -0.37454,-0.475 -0.37454,4.75 0,5.225 0.16854,7.3625 0.37454,4.75 0.206,-2.6125 0.206,-6.8875 0,-9.5 z m 192.99866,-1.03352 c -0.2053,-2.59406 -0.3711,-0.21648 -0.3685,5.28352 0,5.5 0.1706,7.62242 0.3732,4.71648 0.2026,-2.90594 0.2005,-7.40594 0,-10 z M 852,380.5 c 1.86578,-1.925 3.16733,-3.5 2.89233,-3.5 -0.275,0 -2.02655,1.575 -3.89233,3.5 -1.86578,1.925 -3.16733,3.5 -2.89233,3.5 0.275,0 2.02655,-1.575 3.89233,-3.5 z M 990.5,378 c -3.26557,-3.3 -6.16239,-6 -6.43739,-6 -0.275,0 2.17182,2.7 5.43739,6 3.26557,3.3 6.16239,6 6.43739,6 0.275,0 -2.17182,-2.7 -5.43739,-6 z m -132,-4 c 0.99549,-1.1 1.58498,-2 1.30998,-2 -0.275,0 -1.31449,0.9 -2.30998,2 -0.99549,1.1 -1.58498,2 -1.30998,2 0.275,0 1.31449,-0.9 2.30998,-2 z m 52.6875,-23.68311 c -0.72187,-0.28887 -1.58438,-0.25335 -1.91667,0.0789 -0.33229,0.33229 0.25834,0.56864 1.3125,0.52522 1.16495,-0.048 1.4019,-0.28494 0.60417,-0.60416 z m 23,0 c -0.72187,-0.28887 -1.58438,-0.25335 -1.91667,0.0789 -0.33229,0.33229 0.25834,0.56864 1.3125,0.52522 1.16495,-0.048 1.4019,-0.28494 0.60417,-0.60416 z M 1028,769.62244 c 0,-0.20765 -0.7875,-0.99515 -1.75,-1.75 -1.5861,-1.24387 -1.6214,-1.2085 -0.3776,0.37756 1.3064,1.66575 2.1276,2.19548 2.1276,1.37244 z M 812,767.5 c 0.68469,-0.825 1.01989,-1.5 0.74489,-1.5 -0.275,0 -1.0602,0.675 -1.74489,1.5 -0.68469,0.825 -1.01989,1.5 -0.74489,1.5 0.275,0 1.0602,-0.675 1.74489,-1.5 z m 259.6042,-8.22917 c -0.3323,-0.33229 -0.5687,0.25834 -0.5253,1.3125 0.048,1.16495 0.285,1.4019 0.6042,0.60417 0.2889,-0.72187 0.2534,-1.58438 -0.079,-1.91667 z M 827,750.5 c 0.68469,-0.825 1.01989,-1.5 0.74489,-1.5 -0.275,0 -1.0602,0.675 -1.74489,1.5 -0.68469,0.825 -1.01989,1.5 -0.74489,1.5 0.275,0 1.0602,-0.675 1.74489,-1.5 z m 134.1875,-4.18311 c -0.72187,-0.28887 -1.58438,-0.25335 -1.91667,0.0789 -0.33229,0.33229 0.25834,0.56864 1.3125,0.52522 1.16495,-0.048 1.4019,-0.28494 0.60417,-0.60416 z M 1070.6893,742.25 c -0.2515,-0.9625 -0.4573,-0.175 -0.4573,1.75 0,1.925 0.2058,2.7125 0.4573,1.75 0.2516,-0.9625 0.2516,-2.5375 0,-3.5 z m -301.99997,-1 c -0.25153,-0.9625 -0.45733,-0.175 -0.45733,1.75 0,1.925 0.2058,2.7125 0.45733,1.75 0.25152,-0.9625 0.25152,-2.5375 0,-3.5 z m 199.49817,4.06689 c -0.72187,-0.28887 -1.58438,-0.25335 -1.91667,0.0789 -0.33229,0.33229 0.25834,0.56864 1.3125,0.52522 1.16495,-0.048 1.4019,-0.28494 0.60417,-0.60416 z M 833,743.5 c 0.68469,-0.825 1.01989,-1.5 0.74489,-1.5 -0.275,0 -1.0602,0.675 -1.74489,1.5 -0.68469,0.825 -1.01989,1.5 -0.74489,1.5 0.275,0 1.0602,-0.675 1.74489,-1.5 z m -63.34406,-15.76903 c -0.27393,-0.67703 -0.48137,0.11903 -0.46099,1.76903 0.0204,1.65 0.2445,2.20394 0.49804,1.23097 0.25354,-0.97297 0.23687,-2.32297 -0.0371,-3 z m 300.03116,-1.49263 c -0.2503,-0.95609 -0.446,0.0617 -0.4349,2.26166 0.011,2.2 0.2159,2.98225 0.4551,1.73834 0.2392,-1.24391 0.2301,-3.04391 -0.02,-4 z M 770.66228,712.75 c -0.27741,-0.6875 -0.50439,-0.125 -0.50439,1.25 0,1.375 0.22698,1.9375 0.50439,1.25 0.27741,-0.6875 0.27741,-1.8125 0,-2.5 z m 298.00002,0 c -0.2774,-0.6875 -0.5044,-0.125 -0.5044,1.25 0,1.375 0.227,1.9375 0.5044,1.25 0.2774,-0.6875 0.2774,-1.8125 0,-2.5 z M 680,701.62244 c 0,-0.20765 -0.7875,-0.99515 -1.75,-1.75 -1.58606,-1.24387 -1.62143,-1.2085 -0.37756,0.37756 1.30637,1.66575 2.12756,2.19548 2.12756,1.37244 z m 232.25,-62.32817 c -1.2375,-0.23836 -3.2625,-0.23836 -4.5,0 -1.2375,0.23835 -0.225,0.43337 2.25,0.43337 2.475,0 3.4875,-0.19502 2.25,-0.43337 z m 24,0 c -1.2375,-0.23836 -3.2625,-0.23836 -4.5,0 -1.2375,0.23835 -0.225,0.43337 2.25,0.43337 2.475,0 3.4875,-0.19502 2.25,-0.43337 z m 16.9375,-1.97738 c -0.72187,-0.28887 -1.58438,-0.25335 -1.91667,0.0789 -0.33229,0.33229 0.25834,0.56864 1.3125,0.52522 1.16495,-0.048 1.4019,-0.28494 0.60417,-0.60416 z m 274.5435,-37.00988 c -0.973,-0.25354 -2.323,-0.23687 -3,0.0371 -0.6771,0.27393 0.119,0.48137 1.769,0.46099 1.65,-0.0204 2.2039,-0.2445 1.231,-0.49804 z m -14.4927,-1.01427 c -1.2439,-0.23919 -3.0439,-0.23011 -4,0.0202 -0.956,0.25029 0.062,0.446 2.2617,0.4349 2.2,-0.0111 2.9823,-0.21589 1.7383,-0.45508 z m -14.4883,-0.98207 c -0.9625,-0.25152 -2.5375,-0.25152 -3.5,0 -0.9625,0.25153 -0.175,0.45733 1.75,0.45733 1.925,0 2.7125,-0.2058 1.75,-0.45733 z m -580.51166,-3.01793 c -1.24391,-0.23919 -3.04391,-0.23011 -4,0.0202 -0.95609,0.25029 0.0617,0.446 2.26166,0.4349 2.2,-0.0111 2.98225,-0.21589 1.73834,-0.45508 z M 799,595.62244 c 0,-0.20765 -0.7875,-0.99515 -1.75,-1.75 -1.58606,-1.24387 -1.62143,-1.2085 -0.37756,0.37756 1.30637,1.66575 2.12756,2.19548 2.12756,1.37244 z M 1047,594.5 c 0.6847,-0.825 1.0199,-1.5 0.7449,-1.5 -0.275,0 -1.0602,0.675 -1.7449,1.5 -0.6847,0.825 -1.0199,1.5 -0.7449,1.5 0.275,0 1.0602,-0.675 1.7449,-1.5 z m -415.25,-0.18933 c -0.9625,-0.25152 -2.5375,-0.25152 -3.5,0 -0.9625,0.25153 -0.175,0.45733 1.75,0.45733 1.925,0 2.7125,-0.2058 1.75,-0.45733 z m 14.48834,-1.01793 c -1.24391,-0.23919 -3.04391,-0.23011 -4,0.0202 -0.95609,0.25029 0.0617,0.446 2.26166,0.4349 2.2,-0.0111 2.98225,-0.21589 1.73834,-0.45508 z M 1054,588.5 c 1.2917,-1.375 2.1236,-2.5 1.8486,-2.5 -0.275,0 -1.5569,1.125 -2.8486,2.5 -1.2917,1.375 -2.1236,2.5 -1.8486,2.5 0.275,0 1.5569,-1.125 2.8486,-2.5 z m -139.76166,0.79274 c -1.24391,-0.23919 -3.04391,-0.23011 -4,0.0202 -0.95609,0.25029 0.0617,0.446 2.26166,0.4349 2.2,-0.0111 2.98225,-0.21589 1.73834,-0.45508 z m 19.51166,0.0179 c -0.9625,-0.25152 -2.5375,-0.25152 -3.5,0 -0.9625,0.25153 -0.175,0.45733 1.75,0.45733 1.925,0 2.7125,-0.2058 1.75,-0.45733 z M 791,588.67431 c 0,-0.17912 -1.2375,-1.41662 -2.75,-2.75 L 785.5,583.5 l 2.42431,2.75 C 790.1902,588.82029 791,589.45859 791,588.67431 z m 112.1875,-0.35742 c -0.72187,-0.28887 -1.58438,-0.25335 -1.91667,0.0789 -0.33229,0.33229 0.25834,0.56864 1.3125,0.52522 1.16495,-0.048 1.4019,-0.28494 0.60417,-0.60416 z m 39,0 c -0.72187,-0.28887 -1.58438,-0.25335 -1.91667,0.0789 -0.33229,0.33229 0.25834,0.56864 1.3125,0.52522 1.16495,-0.048 1.4019,-0.28494 0.60417,-0.60416 z M 785,582.62244 c 0,-0.20765 -0.7875,-0.99515 -1.75,-1.75 -1.58606,-1.24387 -1.62143,-1.2085 -0.37756,0.37756 1.30637,1.66575 2.12756,2.19548 2.12756,1.37244 z M 1063,579.5 c 0.6847,-0.825 1.0199,-1.5 0.7449,-1.5 -0.275,0 -1.0602,0.675 -1.7449,1.5 -0.6847,0.825 -1.0199,1.5 -0.7449,1.5 0.275,0 1.0602,-0.675 1.7449,-1.5 z m -287,-6.87756 c 0,-0.20765 -0.7875,-0.99515 -1.75,-1.75 -1.58606,-1.24387 -1.62143,-1.2085 -0.37756,0.37756 1.30637,1.66575 2.12756,2.19548 2.12756,1.37244 z M 1018.5,553 c 0.9955,-1.1 1.585,-2 1.31,-2 -0.275,0 -1.3145,0.9 -2.31,2 -0.9955,1.1 -1.585,2 -1.31,2 0.275,0 1.3145,-0.9 2.31,-2 z M 827,553.67431 c 0,-0.17912 -1.2375,-1.41662 -2.75,-2.75 L 821.5,548.5 l 2.42431,2.75 C 826.1902,553.82029 827,554.45859 827,553.67431 z M 1233.5,548 c -1.5808,-1.65 -3.0992,-3 -3.3742,-3 -0.275,0 0.7934,1.35 2.3742,3 1.5808,1.65 3.0992,3 3.3742,3 0.275,0 -0.7934,-1.35 -2.3742,-3 z m -417,-5 c -1.5808,-1.65 -3.09918,-3 -3.37418,-3 -0.275,0 0.79338,1.35 2.37418,3 1.5808,1.65 3.09918,3 3.37418,3 0.275,0 -0.79338,-1.35 -2.37418,-3 z m 211,1 c 0.9955,-1.1 1.585,-2 1.31,-2 -0.275,0 -1.3145,0.9 -2.31,2 -0.9955,1.1 -1.585,2 -1.31,2 0.275,0 1.3145,-0.9 2.31,-2 z m -418,-1 c 0.99549,-1.1 1.58498,-2 1.30998,-2 -0.275,0 -1.31449,0.9 -2.30998,2 -0.99549,1.1 -1.58498,2 -1.30998,2 0.275,0 1.31449,-0.9 2.30998,-2 z m 616,-2 c -1.5808,-1.65 -3.0992,-3 -3.3742,-3 -0.275,0 0.7934,1.35 2.3742,3 1.5808,1.65 3.0992,3 3.3742,3 0.275,0 -0.7934,-1.35 -2.3742,-3 z M 616,537.5 c 1.29175,-1.375 2.12363,-2.5 1.84863,-2.5 -0.275,0 -1.55688,1.125 -2.84863,2.5 -1.29175,1.375 -2.12363,2.5 -1.84863,2.5 0.275,0 1.55688,-1.125 2.84863,-2.5 z m 418,-1 c 0.6847,-0.825 1.0199,-1.5 0.7449,-1.5 -0.275,0 -1.0602,0.675 -1.7449,1.5 -0.6847,0.825 -1.0199,1.5 -0.7449,1.5 0.275,0 1.0602,-0.675 1.7449,-1.5 z M 622.60417,486.27083 c -0.33229,-0.33229 -0.56864,0.25834 -0.52522,1.3125 0.048,1.16495 0.28494,1.4019 0.60416,0.60417 0.28887,-0.72188 0.25335,-1.58438 -0.0789,-1.91667 z m 108,-14 c -0.33229,-0.33229 -0.56864,0.25834 -0.52522,1.3125 0.048,1.16495 0.28494,1.4019 0.60416,0.60417 0.28887,-0.72188 0.25335,-1.58438 -0.0789,-1.91667 z M 729.66228,463.75 c -0.27741,-0.6875 -0.50439,-0.125 -0.50439,1.25 0,1.375 0.22698,1.9375 0.50439,1.25 0.27741,-0.6875 0.27741,-1.8125 0,-2.5 z m 544.00002,0 c -0.2774,-0.6875 -0.5044,-0.125 -0.5044,1.25 0,1.375 0.227,1.9375 0.5044,1.25 0.2774,-0.6875 0.2774,-1.8125 0,-2.5 z m -494.00002,-3 c -0.27741,-0.6875 -0.50439,-0.125 -0.50439,1.25 0,1.375 0.22698,1.9375 0.50439,1.25 0.27741,-0.6875 0.27741,-1.8125 0,-2.5 z m -209.05811,-1.47917 c -0.33229,-0.33229 -0.56864,0.25834 -0.52522,1.3125 0.048,1.16495 0.28494,1.4019 0.60416,0.60417 0.28887,-0.72188 0.25335,-1.58438 -0.0789,-1.91667 z m 703.13723,-15.48164 c -0.1958,-3.45906 -0.3577,-0.88919 -0.3596,5.71081 0,6.6 0.1582,9.43013 0.356,6.28919 0.1978,-3.14095 0.1994,-8.54095 0,-12 z m -703.00208,-7.08078 c -0.19468,-3.41462 -0.35253,-0.35841 -0.35078,6.79159 0.002,7.15 0.16103,9.94379 0.35396,6.20841 0.19293,-3.73537 0.19149,-9.58537 -0.003,-13 z m 157.99418,6.06802 c -0.21125,-2.35204 -0.38706,-0.67643 -0.39069,3.72357 -0.004,4.4 0.16921,6.32439 0.38408,4.27643 0.21488,-2.04796 0.21785,-5.64796 0.007,-8 z m 49.98103,0.45566 c -0.22818,-1.50265 -0.41027,-0.0321 -0.40466,3.26791 0.006,3.3 0.1923,4.52944 0.41486,2.73209 0.22256,-1.79735 0.21797,-4.49735 -0.0102,-6 z M 1273.6623,431.75 c -0.2774,-0.6875 -0.5044,-0.125 -0.5044,1.25 0,1.375 0.227,1.9375 0.5044,1.25 0.2774,-0.6875 0.2774,-1.8125 0,-2.5 z m -494.00002,-2 c -0.27741,-0.6875 -0.50439,-0.125 -0.50439,1.25 0,1.375 0.22698,1.9375 0.50439,1.25 0.27741,-0.6875 0.27741,-1.8125 0,-2.5 z m -50,-3 c -0.27741,-0.6875 -0.50439,-0.125 -0.50439,1.25 0,1.375 0.22698,1.9375 0.50439,1.25 0.27741,-0.6875 0.27741,-1.8125 0,-2.5 z m -159.05811,-0.47917 c -0.33229,-0.33229 -0.56864,0.25834 -0.52522,1.3125 0.048,1.16495 0.28494,1.4019 0.60416,0.60417 0.28887,-0.72188 0.25335,-1.58438 -0.0789,-1.91667 z m 160,-8 c -0.33229,-0.33229 -0.56864,0.25834 -0.52522,1.3125 0.048,1.16495 0.28494,1.4019 0.60416,0.60417 0.28887,-0.72188 0.25335,-1.58438 -0.0789,-1.91667 z M 626,357.65499 c 0,-0.18976 -1.0125,-1.20226 -2.25,-2.25 L 621.5,353.5 l 1.90499,2.25 c 1.79022,2.11444 2.59501,2.70524 2.59501,1.90499 z m 405,-5.03255 c 0,-0.20765 -0.7875,-0.99515 -1.75,-1.75 -1.5861,-1.24387 -1.6214,-1.2085 -0.3776,0.37756 1.3064,1.66575 2.1276,2.19548 2.1276,1.37244 z m -4,-3.96745 c 0,-0.18976 -1.0125,-1.20226 -2.25,-2.25 l -2.25,-1.90499 1.905,2.25 c 1.7902,2.11444 2.595,2.70524 2.595,1.90499 z m -415,-2.98068 c 0,-0.17912 -1.2375,-1.41662 -2.75,-2.75 L 606.5,340.5 l 2.42431,2.75 C 611.1902,345.82029 612,346.45859 612,345.67431 z M 827,339.5 c 0.68469,-0.825 1.01989,-1.5 0.74489,-1.5 -0.275,0 -1.0602,0.675 -1.74489,1.5 -0.68469,0.825 -1.01989,1.5 -0.74489,1.5 0.275,0 1.0602,-0.675 1.74489,-1.5 z m -222,0.17431 c 0,-0.17912 -1.2375,-1.41662 -2.75,-2.75 L 599.5,334.5 l 2.42431,2.75 C 604.1902,339.82029 605,340.45859 605,339.67431 z M 774.5,322 c 0.99549,-1.1 1.58498,-2 1.30998,-2 -0.275,0 -1.31449,0.9 -2.30998,2 -0.99549,1.1 -1.58498,2 -1.30998,2 0.275,0 1.31449,-0.9 2.30998,-2 z m 296.5,0.62244 c 0,-0.20765 -0.7875,-0.99515 -1.75,-1.75 -1.5861,-1.24387 -1.6214,-1.2085 -0.3776,0.37756 1.3064,1.66575 2.1276,2.19548 2.1276,1.37244 z m -8,-8.92627 c 0,-0.16711 -1.6875,-1.85461 -3.75,-3.75 l -3.75,-3.44617 3.4462,3.75 c 3.2076,3.49042 4.0538,4.20979 4.0538,3.44617 z M 789,306.5 c 2.42903,-2.475 4.19142,-4.5 3.91642,-4.5 -0.275,0 -2.48739,2.025 -4.91642,4.5 -2.42903,2.475 -4.19142,4.5 -3.91642,4.5 0.275,0 2.48739,-2.025 4.91642,-4.5 z m 114.1875,-2.18311 c -0.72187,-0.28887 -1.58438,-0.25335 -1.91667,0.0789 -0.33229,0.33229 0.25834,0.56864 1.3125,0.52522 1.16495,-0.048 1.4019,-0.28494 0.60417,-0.60416 z m 39,0 c -0.72187,-0.28887 -1.58438,-0.25335 -1.91667,0.0789 -0.33229,0.33229 0.25834,0.56864 1.3125,0.52522 1.16495,-0.048 1.4019,-0.28494 0.60417,-0.60416 z M 913.75,303.31067 c -0.9625,-0.25152 -2.5375,-0.25152 -3.5,0 -0.9625,0.25153 -0.175,0.45733 1.75,0.45733 1.925,0 2.7125,-0.2058 1.75,-0.45733 z m 20,0 c -0.9625,-0.25152 -2.5375,-0.25152 -3.5,0 -0.9625,0.25153 -0.175,0.45733 1.75,0.45733 1.925,0 2.7125,-0.2058 1.75,-0.45733 z M 797.5,299 c 0.99549,-1.1 1.58498,-2 1.30998,-2 -0.275,0 -1.31449,0.9 -2.30998,2 -0.99549,1.1 -1.58498,2 -1.30998,2 0.275,0 1.31449,-0.9 2.30998,-2 z m 251.5,1.65499 c 0,-0.18976 -1.0125,-1.20226 -2.25,-2.25 l -2.25,-1.90499 1.905,2.25 c 1.7902,2.11444 2.595,2.70524 2.595,1.90499 z m -400.25,-6.34432 c -0.9625,-0.25152 -2.5375,-0.25152 -3.5,0 -0.9625,0.25153 -0.175,0.45733 1.75,0.45733 1.925,0 2.7125,-0.2058 1.75,-0.45733 z m -14.01903,-1.00366 c -0.97297,-0.25354 -2.32297,-0.23687 -3,0.0371 -0.67703,0.27393 0.11903,0.48137 1.76903,0.46099 1.65,-0.0204 2.20394,-0.2445 1.23097,-0.49804 z m -14.49263,-1.01427 c -1.24391,-0.23919 -3.04391,-0.23011 -4,0.0202 -0.95609,0.25029 0.0617,0.446 2.26166,0.4349 2.2,-0.0111 2.98225,-0.21589 1.73834,-0.45508 z M 899.1875,254.31689 c -0.72187,-0.28887 -1.58438,-0.25335 -1.91667,0.0789 -0.33229,0.33229 0.25834,0.56864 1.3125,0.52522 1.16495,-0.048 1.4019,-0.28494 0.60417,-0.60416 z m 47,0 c -0.72187,-0.28887 -1.58438,-0.25335 -1.91667,0.0789 -0.33229,0.33229 0.25834,0.56864 1.3125,0.52522 1.16495,-0.048 1.4019,-0.28494 0.60417,-0.60416 z m -34.94916,-1.02415 c -1.24391,-0.23919 -3.04391,-0.23011 -4,0.0202 -0.95609,0.25029 0.0617,0.446 2.26166,0.4349 2.2,-0.0111 2.98225,-0.21589 1.73834,-0.45508 z m 25.01166,0.002 c -1.2375,-0.23836 -3.2625,-0.23836 -4.5,0 -1.2375,0.23835 -0.225,0.43337 2.25,0.43337 2.475,0 3.4875,-0.19502 2.25,-0.43337 z M 1176,202.65499 c 0,-0.18976 -1.0125,-1.20226 -2.25,-2.25 l -2.25,-1.90499 1.905,2.25 c 1.7902,2.11444 2.595,2.70524 2.595,1.90499 z M 673,198.5 c 0.68469,-0.825 1.01989,-1.5 0.74489,-1.5 -0.275,0 -1.0602,0.675 -1.74489,1.5 -0.68469,0.825 -1.01989,1.5 -0.74489,1.5 0.275,0 1.0602,-0.675 1.74489,-1.5 z m 8,-8 c 1.86578,-1.925 3.16733,-3.5 2.89233,-3.5 -0.275,0 -2.02655,1.575 -3.89233,3.5 -1.86578,1.925 -3.16733,3.5 -2.89233,3.5 0.275,0 2.02655,-1.575 3.89233,-3.5 z m 393.6893,-28.25 c -0.2515,-0.9625 -0.4573,-0.175 -0.4573,1.75 0,1.925 0.2058,2.7125 0.4573,1.75 0.2516,-0.9625 0.2516,-2.5375 0,-3.5 z m -299.99997,-2 c -0.25153,-0.9625 -0.45733,-0.175 -0.45733,1.75 0,1.925 0.2058,2.7125 0.45733,1.75 0.25152,-0.9625 0.25152,-2.5375 0,-3.5 z m 300.99997,-12 c -0.2515,-0.9625 -0.4573,-0.175 -0.4573,1.75 0,1.925 0.2058,2.7125 0.4573,1.75 0.2516,-0.9625 0.2516,-2.5375 0,-3.5 z m -301.99997,-2 c -0.25153,-0.9625 -0.45733,-0.175 -0.45733,1.75 0,1.925 0.2058,2.7125 0.45733,1.75 0.25152,-0.9625 0.25152,-2.5375 0,-3.5 z M 839,148.62244 c 0,-0.20765 -0.7875,-0.99515 -1.75,-1.75 -1.58606,-1.24387 -1.62143,-1.2085 -0.37756,0.37756 1.30637,1.66575 2.12756,2.19548 2.12756,1.37244 z m 134.1875,-0.30555 c -0.72187,-0.28887 -1.58438,-0.25335 -1.91667,0.0789 -0.33229,0.33229 0.25834,0.56864 1.3125,0.52522 1.16495,-0.048 1.4019,-0.28494 0.60417,-0.60416 z m -6,-1 c -0.72187,-0.28887 -1.58438,-0.25335 -1.91667,0.0789 -0.33229,0.33229 0.25834,0.56864 1.3125,0.52522 1.16495,-0.048 1.4019,-0.28494 0.60417,-0.60416 z m -82,-1 c -0.72187,-0.28887 -1.58438,-0.25335 -1.91667,0.0789 -0.33229,0.33229 0.25834,0.56864 1.3125,0.52522 1.16495,-0.048 1.4019,-0.28494 0.60417,-0.60416 z M 834,142.62244 c 0,-0.20765 -0.7875,-0.99515 -1.75,-1.75 -1.58606,-1.24387 -1.62143,-1.2085 -0.37756,0.37756 1.30637,1.66575 2.12756,2.19548 2.12756,1.37244 z M 1019,141.5 c 0.6847,-0.825 1.0199,-1.5 0.7449,-1.5 -0.275,0 -1.0602,0.675 -1.7449,1.5 -0.6847,0.825 -1.0199,1.5 -0.7449,1.5 0.275,0 1.0602,-0.675 1.7449,-1.5 z m 5.5,-6.5 c 0.9955,-1.1 1.585,-2 1.31,-2 -0.275,0 -1.3145,0.9 -2.31,2 -0.9955,1.1 -1.585,2 -1.31,2 0.275,0 1.3145,-0.9 2.31,-2 z m 52.1042,-1.72917 c -0.3323,-0.33229 -0.5687,0.25834 -0.5253,1.3125 0.048,1.16495 0.285,1.4019 0.6042,0.60417 0.2889,-0.72188 0.2534,-1.58438 -0.079,-1.91667 z M 825,132.62244 c 0,-0.20765 -0.7875,-0.99515 -1.75,-1.75 -1.58606,-1.24387 -1.62143,-1.2085 -0.37756,0.37756 1.30637,1.66575 2.12756,2.19548 2.12756,1.37244 z M 1032,126.5 c 1.2917,-1.375 2.1236,-2.5 1.8486,-2.5 -0.275,0 -1.5569,1.125 -2.8486,2.5 -1.2917,1.375 -2.1236,2.5 -1.8486,2.5 0.275,0 1.5569,-1.125 2.8486,-2.5 z m -212,0.17431 c 0,-0.17912 -1.2375,-1.41662 -2.75,-2.75 L 814.5,121.5 l 2.42431,2.75 C 819.1902,126.82029 820,127.45859 820,126.67431 z"
     id="path3107"
     inkscape:connector-curvature="0" />
</svg>
